<svg id="Group_7921" data-name="Group 7921" xmlns="http://www.w3.org/2000/svg" width="105.803" height="81.521" viewBox="0 0 105.803 81.521">
  <path id="Path_8296" data-name="Path 8296" d="M1208.491,847.454c1.189,3.344,2.333,6.6,3.525,9.834a1.056,1.056,0,0,0,.8.461c1.08.054,2.163.026,3.245.022.855,0,1.415.372,1.418,1.26,0,.848-.564,1.188-1.353,1.216-.288.01-.577.006-.865.006q-17.584,0-35.168,0c-.36,0-.807.114-1.062-.054-.455-.3-1.039-.729-1.124-1.187-.131-.7.408-1.208,1.184-1.227,1.154-.028,2.31.027,3.461-.038a1.142,1.142,0,0,0,.853-.548c1.18-3.205,2.307-6.43,3.505-9.813h-1.34q-15.474,0-30.948,0c-3.485,0-5.448-1.932-5.45-5.4q-.021-28.886-.026-57.773c0-3.5,1.936-5.437,5.411-5.437q43.121-.006,86.242,0c3.467,0,5.4,1.958,5.4,5.448q.005,29.157.031,58.314a1.919,1.919,0,0,0,.6,1.245c2.206,2.022,4.458,4,6.694,5.984,1.855,1.65,1.862,3.405.215,5.24-2.492,2.774-4.453,2.881-6.9-.128-1.907-2.349-3.982-4.565-6.021-6.8a1.944,1.944,0,0,0-1.227-.657q-15.312-.053-30.623-.024A4.87,4.87,0,0,0,1208.491,847.454Zm1.416-31.872H1172.9c-.433,0-.866,0-1.3-.011a8.618,8.618,0,0,1-8.088-10.764c1.024-3.994,4.441-6.476,8.985-6.478q25.155-.012,50.309,0a15.005,15.005,0,0,1,1.833.122,8.606,8.606,0,0,1,7.317,6.836,9.267,9.267,0,0,1-.71,5.463,16.684,16.684,0,0,1,7.98,9.268,16.9,16.9,0,0,1-.38,12.153h4.8c.021-.292.051-.507.051-.721q0-23.69,0-47.38c0-2-.885-2.821-2.973-2.822q-43.006,0-86.013,0c-2.231,0-3.072.844-3.073,3.068q0,23.582,0,47.164v1.125H1208.1C1206.022,824.131,1206.205,822.354,1209.907,815.581Zm13.484,24.252a14.249,14.249,0,1,0-14.2-14.256A14.253,14.253,0,0,0,1223.391,839.833Zm-40.9-26.87a3.95,3.95,0,0,0,.528.085q14.382.007,28.764-.014a2.048,2.048,0,0,0,1.138-.477,16.122,16.122,0,0,1,11.029-3.663c1.666.082,3.318.438,5,.672a5.992,5.992,0,0,0-5.485-8.7q-20.059-.034-40.118-.005c-.273,0-.545.048-.853.076Zm67.876,41.789c.554-.532,1.046-1.033,1.57-1.5.617-.548.652-1.015,0-1.593-4.214-3.71-8.4-7.452-12.629-11.146-.26-.228-.792-.146-1.2-.208.075.381.023.873.244,1.126q5.582,6.379,11.229,12.7A6.485,6.485,0,0,0,1250.366,854.752Zm-73.6-48.4a3.243,3.243,0,0,0-3.254-3.318,3.189,3.189,0,0,0-3.39,3.269,2.881,2.881,0,0,1-.93,2.615,1.1,1.1,0,0,0,.449,1.837,2.044,2.044,0,0,0,1.522-.415,2.072,2.072,0,0,1,1.953-.667A3.232,3.232,0,0,0,1176.765,806.356Zm20.817,34.912c.755,0,1.513.04,2.265-.012a1.242,1.242,0,0,0-.009-2.483q-2.155-.065-4.314,0a1.166,1.166,0,0,0-1.221,1.244,1.18,1.18,0,0,0,1.231,1.237C1196.213,841.3,1196.9,841.266,1197.582,841.268Z" transform="translate(-1149.15 -778.767)" fill="#ee2c3c"/>
  <path id="Path_8297" data-name="Path 8297" d="M1403.605,899.007a11.953,11.953,0,0,1,7.715,3.164c.653.588,1.071,1.216.425,2.039-.5.633-1.25.574-2.062-.156a9.518,9.518,0,0,0-6.248-2.554c-.87-.026-1.489-.349-1.522-1.3C1401.885,899.4,1402.55,898.955,1403.605,899.007Z" transform="translate(-1328.855 -864.25)" fill="#ee2c3c"/>
  <path id="Path_8298" data-name="Path 8298" d="M1383.722,904.926c-.4-.34-.891-.562-1.025-.917s-.076-1.094.165-1.247a13.2,13.2,0,0,1,2.858-1.367c.263-.088.9.347,1.053.685a1.337,1.337,0,0,1-.163,1.251A28.1,28.1,0,0,1,1383.722,904.926Z" transform="translate(-1315.143 -865.943)" fill="#ee2c3c"/>
  <path id="Path_8299" data-name="Path 8299" d="M1289.259,874.463c-3.676,0-7.353.034-11.028-.037a2.13,2.13,0,0,1-1.548-.825,1.029,1.029,0,0,1,.706-1.53,3.878,3.878,0,0,1,1.172-.12q10.758-.01,21.516,0c.18,0,.36,0,.541,0,.867.023,1.53.364,1.491,1.318-.036.876-.665,1.2-1.5,1.2-2.271-.006-4.541,0-6.812,0Z" transform="translate(-1239.713 -845.014)" fill="#ee2c3c"/>
</svg>
