<svg id="Group_7922" data-name="Group 7922" xmlns="http://www.w3.org/2000/svg" width="96.763" height="105.809" viewBox="0 0 96.763 105.809">
  <path id="Path_8280" data-name="Path 8280" d="M1434.838,318.338c8.02-2.261,13.678-.437,17.016,5.4a12.992,12.992,0,0,1-18.9,16.93c-.087.029-.216.033-.281.1a8.782,8.782,0,0,1-6.687,2.47q-30.083-.043-60.167-.029a13.469,13.469,0,0,1-3.213-.3,7.714,7.714,0,0,1-5.78-6.794c-.042-.43-.069-.863-.07-1.3q0-44.467,0-88.934c0-3.928,1.993-6.92,5.392-8a10.347,10.347,0,0,1,3.082-.43q30.57-.036,61.14-.013c5.236,0,8.457,3.282,8.458,8.548q0,35.487,0,70.974Zm-3.9,20.549c-.163-.222-.3-.428-.457-.621a12.856,12.856,0,0,1,1.145-17.54,2.315,2.315,0,0,0,.762-1.879q-.022-36.354-.013-72.708c0-4.064-2.149-6.225-6.191-6.225q-30.355,0-60.709,0c-4.072,0-6.206,2.133-6.206,6.195q0,44.2,0,88.4c0,4.124,2.123,6.233,6.278,6.233h39.5q10.713,0,21.427,0A5.607,5.607,0,0,0,1430.936,338.887Zm7.661-7.286a21.7,21.7,0,0,0-1.518-1.789,1.243,1.243,0,1,0-1.748,1.764c.82.859,1.67,1.69,2.532,2.507a1.124,1.124,0,0,0,1.659.07c2.14-2.085,4.272-4.181,6.313-6.361a1.73,1.73,0,0,0-.063-1.614c-.4-.6-1.126-.531-1.706-.038-.246.209-.467.449-.7.678Z" transform="translate(-1356.759 -237.427)" fill="#ee2c3c"/>
  <path id="Path_8281" data-name="Path 8281" d="M1392.26,389.8c2.272,0,4.543,0,6.814,0,1.424,0,1.839.387,1.841,1.765q.014,6.975,0,13.95c0,1.338-.423,1.762-1.74,1.765q-6.977.013-13.953,0c-1.378,0-1.774-.415-1.776-1.826q-.007-6.921,0-13.843c0-1.41.394-1.807,1.783-1.811C1387.573,389.794,1389.916,389.8,1392.26,389.8Zm-1.766,9.491c-.285-.26-.5-.453-.707-.645a1.192,1.192,0,0,0-1.818-.046,1.18,1.18,0,0,0,.073,1.814q.6.623,1.218,1.222c.951.924,1.436.938,2.366.021q2.227-2.2,4.425-4.422c.825-.832.941-1.593.294-2.133-.8-.67-1.444-.263-2.055.362C1393.039,396.745,1391.77,398.006,1390.494,399.29Z" transform="translate(-1375.73 -345.757)" fill="#ee2c3c"/>
  <path id="Path_8282" data-name="Path 8282" d="M1383.445,482.1c0-2.306-.005-4.612,0-6.919,0-1.384.363-1.771,1.694-1.774q7.028-.014,14.056,0c1.337,0,1.717.392,1.719,1.757q.012,6.973,0,13.946c0,1.336-.4,1.724-1.755,1.726q-6.974.015-13.949,0c-1.416,0-1.762-.373-1.765-1.818C1383.441,486.713,1383.445,484.407,1383.445,482.1Zm7.085.828c-.358-.329-.542-.5-.725-.667a1.251,1.251,0,1,0-1.7,1.815c.381.382.761.766,1.149,1.141.913.883,1.5.9,2.386.02,1.485-1.467,2.947-2.957,4.433-4.423.629-.621.993-1.277.335-2.066-.515-.618-1.33-.488-2.135.327C1393.034,480.328,1391.818,481.6,1390.53,482.928Z" transform="translate(-1375.731 -405.196)" fill="#ee2c3c"/>
  <path id="Path_8283" data-name="Path 8283" d="M1392.194,323.752c-2.343,0-4.686.008-7.029,0-1.338-.006-1.717-.392-1.719-1.751q-.009-6.973,0-13.946c0-1.348.378-1.736,1.738-1.74q6.974-.018,13.949,0c1.412,0,1.781.386,1.782,1.814q.01,6.919,0,13.838c0,1.409-.384,1.782-1.8,1.787C1396.808,323.758,1394.5,323.752,1392.194,323.752Zm-1.659-7.931c-.306-.276-.494-.44-.675-.611a1.223,1.223,0,0,0-1.9-.095c-.631.649-.411,1.311.171,1.9.407.409.807.825,1.226,1.221a1.356,1.356,0,0,0,2.236-.036q2.274-2.238,4.512-4.511c.774-.784.875-1.523.265-2.062-.786-.695-1.442-.32-2.055.317C1393.065,313.234,1391.807,314.515,1390.535,315.821Z" transform="translate(-1375.73 -286.396)" fill="#ee2c3c"/>
  <path id="Path_8284" data-name="Path 8284" d="M1485.811,332.04q8.765,0,17.529,0c.359,0,.817-.1,1.055.081a2.062,2.062,0,0,1,.881,1.183c.031.356-.432.855-.8,1.11a2.207,2.207,0,0,1-1.155.145q-17.476.009-34.951,0c-.324,0-.749.1-.95-.066-.427-.347-1.034-.853-1.013-1.265s.671-.865,1.135-1.156c.26-.163.7-.036,1.064-.036Z" transform="translate(-1434.715 -304.66)" fill="#ee2c3c"/>
  <path id="Path_8285" data-name="Path 8285" d="M1485.878,389.713h17.313c.289,0,.579-.016.865.009a1.248,1.248,0,0,1,.021,2.5,6.051,6.051,0,0,1-.756.019q-17.529,0-35.059,0c-.323,0-.745.081-.947-.086-.4-.331-.953-.819-.937-1.222s.594-.86,1.016-1.168c.215-.157.63-.047.954-.047Z" transform="translate(-1434.694 -345.671)" fill="#ee2c3c"/>
  <path id="Path_8286" data-name="Path 8286" d="M1485.682,501.717q-8.765,0-17.53-.008a2.228,2.228,0,0,1-1.239-.219,1.534,1.534,0,0,1-.6-1.135,1.66,1.66,0,0,1,.786-1.022,2.345,2.345,0,0,1,1.156-.14q17.476-.009,34.951,0c.145,0,.289,0,.433,0,1.047.034,1.712.544,1.621,1.319-.109.931-.751,1.215-1.618,1.214Q1494.663,501.708,1485.682,501.717Z" transform="translate(-1434.647 -423.528)" fill="#ee2c3c"/>
  <path id="Path_8287" data-name="Path 8287" d="M1485.557,418.156q-8.6,0-17.2,0a9.278,9.278,0,0,1-1.081-.029c-.729-.086-1.187-.592-1.044-1.242.1-.445.621-.85,1.043-1.148.22-.156.63-.052.954-.052q17.474,0,34.948,0c.289,0,.661-.1.848.042.44.332,1.091.78,1.093,1.184s-.626.891-1.077,1.2c-.25.169-.7.049-1.062.049Z" transform="translate(-1434.57 -364.137)" fill="#ee2c3c"/>
  <path id="Path_8288" data-name="Path 8288" d="M1485.9,473.375h17.312c.288,0,.577,0,.865.007a1.146,1.146,0,0,1,1.223,1.231,1.162,1.162,0,0,1-1.251,1.211c-.216.008-.433.009-.649.009q-17.582,0-35.164,0c-.324,0-.753.1-.949-.065-.395-.332-.89-.8-.912-1.24-.018-.359.534-.831.937-1.1.256-.168.7-.056,1.061-.056Q1477.136,473.374,1485.9,473.375Z" transform="translate(-1434.691 -405.153)" fill="#ee2c3c"/>
  <path id="Path_8289" data-name="Path 8289" d="M1485.771,308.741q-8.763,0-17.527,0c-.324,0-.754.106-.95-.058-.4-.333-.894-.8-.92-1.243-.022-.356.53-.831.93-1.1.256-.172.7-.079,1.059-.079q17.419,0,34.838,0c.108,0,.216,0,.325,0,1.189.019,1.8.445,1.793,1.251s-.612,1.229-1.8,1.23Q1494.642,308.744,1485.771,308.741Z" transform="translate(-1434.691 -286.348)" fill="#ee2c3c"/>
  <path id="Path_8290" data-name="Path 8290" d="M1478.478,360.919q-5.348,0-10.7,0c-.356,0-.8.053-1.044-.131a1.813,1.813,0,0,1-.778-1.123,1.732,1.732,0,0,1,.769-1.126,2.173,2.173,0,0,1,1.15-.141q10.642-.01,21.285,0c.216,0,.433-.007.648.007.791.05,1.338.447,1.341,1.255a1.212,1.212,0,0,1-1.332,1.258c-.827.028-1.656.01-2.485.01Z" transform="translate(-1434.397 -323.425)" fill="#ee2c3c"/>
  <path id="Path_8291" data-name="Path 8291" d="M1478.757,444.049H1468.28c-.288,0-.578.017-.863-.011a1.212,1.212,0,0,1-1.246-1.234,1.185,1.185,0,0,1,1.208-1.263c.608-.054,1.223-.022,1.835-.022h19.874c.252,0,.5,0,.756,0,.845.008,1.54.264,1.552,1.246s-.655,1.272-1.513,1.283c-.216,0-.432,0-.648,0Z" transform="translate(-1434.547 -382.522)" fill="#ee2c3c"/>
  <path id="Path_8292" data-name="Path 8292" d="M1481.593,563.121a4.342,4.342,0,1,1,4.317-4.349A4.36,4.36,0,0,1,1481.593,563.121Z" transform="translate(-1442.381 -462.81)" fill="#ee2c3c"/>
  <path id="Path_8293" data-name="Path 8293" d="M1478.784,525.183q5.464,0,10.928,0c1.124,0,1.692.414,1.659,1.23-.044,1.069-.784,1.24-1.662,1.239q-10.982-.008-21.964-.007c-1.13,0-1.747-.55-1.6-1.395.154-.9.8-1.08,1.6-1.076C1471.427,525.192,1475.106,525.183,1478.784,525.183Z" transform="translate(-1434.513 -442.006)" fill="#ee2c3c"/>
  <path id="Path_8294" data-name="Path 8294" d="M1450.748,257.933c3.133,0,6.267.012,9.4-.007.889-.005,1.609.187,1.713,1.205.083.811-.568,1.28-1.739,1.281q-9.4.009-18.8.006c-.871,0-1.619-.164-1.708-1.206-.07-.822.566-1.276,1.734-1.277Q1446.048,257.927,1450.748,257.933Z" transform="translate(-1415.662 -252.001)" fill="#ee2c3c"/>
  <path id="Path_8295" data-name="Path 8295" d="M1532.427,257.947c.179,0,.358,0,.536,0,.885-.031,1.517.342,1.514,1.262,0,.866-.625,1.22-1.454,1.218-.5,0-1,.014-1.5-.009-.79-.037-1.317-.43-1.295-1.255s.543-1.2,1.342-1.212C1531.855,257.944,1532.141,257.948,1532.427,257.947Z" transform="translate(-1480.088 -252.014)" fill="#ee2c3c"/>
</svg>
