<svg xmlns="http://www.w3.org/2000/svg" width="37.635" height="33.091" viewBox="0 0 37.635 33.091">
  <g id="Group_384" data-name="Group 384" transform="translate(0 0)">
    <path id="Path_1729" data-name="Path 1729" d="M1434.645-371.475V-395.8a3.512,3.512,0,0,1,.146.326q1.876,5.62,3.749,11.242a3.334,3.334,0,0,0,3.415,2.471q2.793,0,5.586,0h.409c0,.38-.005.709,0,1.038a1.1,1.1,0,0,0,1.148,1.164q4.355.01,8.71,0a1.1,1.1,0,0,0,1.165-1.184c.005-.327,0-.655,0-1.018h.429q2.775,0,5.549,0a3.338,3.338,0,0,0,3.437-2.49q1.8-5.412,3.608-10.825c.071-.213.149-.424.223-.636a.216.216,0,0,1,.058.154q0,11.834-.014,23.668a3.579,3.579,0,0,1-.344,1.482,3.239,3.239,0,0,1-3.184,1.88H1438.2c-.086,0-.172,0-.257,0a3.133,3.133,0,0,1-2.63-1.37A8.9,8.9,0,0,1,1434.645-371.475Z" transform="translate(-1434.645 401.625)" fill="#ee2c3c"/>
    <path id="Path_1730" data-name="Path 1730" d="M1472.774-425.994c0-.363,0-.691,0-1.018a1.1,1.1,0,0,0-1.165-1.184q-4.355-.008-8.709,0a1.1,1.1,0,0,0-1.149,1.163c-.006.329,0,.659,0,1.012-.111.01-.2.026-.3.026q-2.867,0-5.733,0a1.141,1.141,0,0,1-1.262-.9q-2.029-6.071-4.049-12.146c-.015-.045-.027-.091-.052-.178h9.215a12.576,12.576,0,0,1,.008-1.418,3.239,3.239,0,0,1,3.281-2.992q4.41-.042,8.82,0a3.286,3.286,0,0,1,3.3,3.335c.008.34,0,.681,0,1.065h9.2c-.361,1.09-.709,2.144-1.06,3.2q-1.5,4.49-2.994,8.979c-.279.836-.577,1.054-1.446,1.055h-5.9Zm0-13.248c0-.311,0-.6,0-.893a1.142,1.142,0,0,0-1.312-1.3q-2.808,0-5.617,0c-.979,0-1.958-.006-2.937,0a1.083,1.083,0,0,0-1.143.969c-.036.4-.007.8-.007,1.216Z" transform="translate(-1448.444 443.648)" fill="#ee2c3c"/>
    <path id="Path_1731" data-name="Path 1731" d="M1568.927-296.167h-6.566v-2.164h6.566Z" transform="translate(-1546.824 316.01)" fill="#ee2c3c"/>
  </g>
</svg>
