<svg id="Group_396" data-name="Group 396" xmlns="http://www.w3.org/2000/svg" width="38.862" height="38.875" viewBox="0 0 38.862 38.875">
  <path id="Path_1727" data-name="Path 1727" d="M1034.486-359.378a1.466,1.466,0,0,1-1.53.845q-17.912-.021-35.823-.01c-.152,0-.3.006-.455-.007a1.142,1.142,0,0,1-1.053-1.139,1.129,1.129,0,0,1,1.068-1.122c.413-.023.828,0,1.282,0v-.482q0-5.958,0-11.916c0-1.017.406-1.422,1.425-1.422q2.049,0,4.1,0a1.164,1.164,0,0,1,1.308,1.31q0,6,0,11.992v.483h2.277v-.4q0-3.738,0-7.476c0-.937.427-1.358,1.374-1.359q2.068,0,4.136,0a1.171,1.171,0,0,1,1.321,1.335q0,3.738,0,7.476v.428h2.277v-.431q0-8.235,0-16.47c0-1.049.4-1.448,1.436-1.449h3.985c1,0,1.411.41,1.411,1.4q0,8.254,0,16.508v.438h2.277v-23.711c0-1.073.39-1.465,1.458-1.465h3.985c.969,0,1.389.418,1.389,1.382q0,11.669,0,23.338v.471c.886.059,1.885-.254,2.353.845Z" transform="translate(-995.624 397.408)" fill="#ee2c3c"/>
  <path id="Path_1728" data-name="Path 1728" d="M1046.09-479.614a3.84,3.84,0,0,1,1.864.858,3.263,3.263,0,0,1,1.032,3.435,3.258,3.258,0,0,1-2.76,2.481,3.333,3.333,0,0,1-2.2-.387.451.451,0,0,0-.393.02q-1.819,1.337-3.611,2.708a.4.4,0,0,0-.115.34,3.38,3.38,0,0,1-3.108,4.18,5,5,0,0,1-1.407-.219.406.406,0,0,0-.461.106q-2.073,2.086-4.16,4.158a.394.394,0,0,0-.1.494,3.372,3.372,0,0,1-2.242,4.45,3.405,3.405,0,0,1-4.261-2.5,2.046,2.046,0,0,1-.08-.75c.054-.361-.1-.507-.4-.649-.9-.427-1.79-.881-2.677-1.339a.4.4,0,0,0-.505.054,3.228,3.228,0,0,1-3.488.477,3.3,3.3,0,0,1-2.047-2.994,3.445,3.445,0,0,1,2.1-3.272,3.458,3.458,0,0,1,3.823.853,3.557,3.557,0,0,1,.9,2.467.484.484,0,0,0,.216.361q1.428.744,2.88,1.441a.492.492,0,0,0,.425-.038,3.4,3.4,0,0,1,3.426-.551.445.445,0,0,0,.381-.087q2.12-2.093,4.211-4.213a.484.484,0,0,0,.076-.415,3.444,3.444,0,0,1,.875-3.72,3.4,3.4,0,0,1,3.98-.478.489.489,0,0,0,.425-.026q1.8-1.324,3.581-2.685a.4.4,0,0,0,.132-.334,3.4,3.4,0,0,1,2.823-4.175.358.358,0,0,0,.1-.049Z" transform="translate(-1012.617 479.614)" fill="#ee2c3c"/>
</svg>
