<svg id="Group_7923" data-name="Group 7923" xmlns="http://www.w3.org/2000/svg" width="106.021" height="99.838" viewBox="0 0 106.021 99.838">
  <path id="Path_8273" data-name="Path 8273" d="M1722.305,788.474l.679,1.919c1.034,2.924,2.087,5.841,3.09,8.776.231.676.528,1,1.3.949,1.151-.074,2.311-.018,3.467-.016.863,0,1.415.41,1.386,1.292-.027.825-.585,1.182-1.392,1.181-1.987,0-3.974,0-5.961,0h-33.383c-.325,0-.65,0-.975,0-.805,0-1.367-.357-1.393-1.182-.029-.881.529-1.289,1.39-1.291,1.228,0,2.458.031,3.684-.028a1.166,1.166,0,0,0,.891-.5c1.316-3.588,2.578-7.2,3.847-10.8.02-.057-.025-.137-.059-.3h-1.257c-11.308,0-22.617-.074-33.924.045a5.664,5.664,0,0,1-6.03-6.035c.074-20.99.021-41.981.016-62.972,0-3.119,1.517-5.268,4.166-5.765a16.673,16.673,0,0,1,2.916-.111c1.833-.014,3.667,0,5.63,0,0-1.94.09-3.777-.021-5.6-.183-3.024,1.784-5.332,5.243-5.29q14.359.173,28.721,0c3.483-.044,5.5,2.251,5.274,5.358-.13,1.79-.023,3.6-.023,5.534h1.35c15.572,0,31.143.059,46.714-.045a5.663,5.663,0,0,1,6.035,6.025c-.073,20.99-.02,41.981-.014,62.972,0,3.057-1.379,5.074-3.953,5.715a8.54,8.54,0,0,1-2.039.169q-16.962.014-33.925.007Zm-6.382-15.853c0-1.434-.02-2.73,0-4.024a11.5,11.5,0,0,1,4.853-9.571,11.883,11.883,0,0,1,7.339-2.19c.68.005,1.36,0,2.04,0l.03-.306a5,5,0,0,0-.5-.352,11.313,11.313,0,0,1-6.079-12.485,3.079,3.079,0,0,0-.221-1.553,15.748,15.748,0,0,1-1.227-7.511,6.919,6.919,0,0,1,4.185-6.01,20.961,20.961,0,0,1,15.126-.441c3.474,1.122,5.133,3.718,5.251,7.407a17.4,17.4,0,0,1-1.308,6.646,3.7,3.7,0,0,0-.178,1.87,11.04,11.04,0,0,1-5.56,11.816c-.355.195-.713.384-1.07.576l.074.343c.693,0,1.387,0,2.08,0,7.172.04,12.1,4.975,12.135,12.147.005,1.18,0,2.36,0,3.57h8.273v-1.129q0-25.9,0-51.8c0-2.558-.968-3.526-3.54-3.527q-23.407,0-46.815,0h-1.225v1.44q0,14.413,0,28.826c0,3.408-1.72,5.141-5.114,5.158-1.213.006-2.426,0-3.608,0-.032.177-.055.219-.043.248q4.075,10.193,8.175,20.376a.949.949,0,0,0,.715.454C1711.727,772.638,1713.745,772.621,1715.923,772.621ZM1672.929,727.1q0,9.646,0,19.293c0,2,.59,2.6,2.559,2.6q14.524,0,29.048,0c1.9,0,2.524-.613,2.525-2.531q.006-19.347,0-38.694c0-1.893-.636-2.507-2.564-2.508q-14.524,0-29.047,0c-1.9,0-2.519.628-2.52,2.546Q1672.926,717.453,1672.929,727.1Zm-12.757,45.522c3.449,0,6.766.023,10.081-.037.307-.006.744-.481.887-.833q3.915-9.618,7.764-19.263c.112-.279.185-.573.309-.966-1.28,0-2.432,0-3.585,0-3.537-.011-5.236-1.717-5.237-5.264q0-14.412,0-28.824v-1.189a1.907,1.907,0,0,0-.367-.125c-2.095-.01-4.189-.022-6.284-.021-2.624,0-3.568.958-3.568,3.6q0,25.79,0,51.579Zm31.049-21.093v1.35q0,7.637,0,15.273c0,.36.1.813-.076,1.059-.281.394-.753.9-1.146.9s-.881-.488-1.17-.878c-.177-.24-.072-.7-.072-1.058q0-7.691,0-15.382v-1.268c-2.005,0-3.877.039-5.745-.019a1.259,1.259,0,0,0-1.406.97c-2.526,6.366-5.1,12.714-7.651,19.068-.13.323-.25.649-.385,1h32.872c-.416-1.039-.786-1.97-1.16-2.9q-3.47-8.628-6.957-17.249c-.138-.339-.506-.819-.781-.828C1695.486,751.5,1693.432,751.529,1691.221,751.529Zm27.153,21.025h31.9c1.375-11.2-5.692-14-11.6-13.02-.285,2.613-1.824,4.245-4.11,4.357-2.312.113-3.892-1.436-4.527-4.506-.879,0-1.776-.011-2.672,0a8.8,8.8,0,0,0-8.674,7.194A47.9,47.9,0,0,0,1718.374,772.553Zm7.412-26.932c.122.932.173,1.581.3,2.216a8.636,8.636,0,0,0,9.033,6.916c4.622-.528,8.166-4.378,7.761-8.81a67.406,67.406,0,0,0-1.569-8.163,1.636,1.636,0,0,0-2.165-1.251,17.105,17.105,0,0,1-9.6-.021,1.559,1.559,0,0,0-2.04,1.133C1726.859,740.373,1726.315,743.129,1725.786,745.621Zm-15.116,36.153c.758,0,1.516,0,2.274,0a1.171,1.171,0,0,0,1.319-1.25,1.146,1.146,0,0,0-1.254-1.206q-2.328-.019-4.656,0a1.152,1.152,0,0,0-1.265,1.2,1.169,1.169,0,0,0,1.308,1.26C1709.155,781.78,1709.912,781.773,1710.67,781.774Z" transform="translate(-1657.664 -702.739)" fill="#ee2c3c"/>
  <path id="Path_8274" data-name="Path 8274" d="M1745.26,773.554a25.236,25.236,0,0,0-2.56-3.447c-2.881-2.751-2.613-7.165-1.324-9.628a8.435,8.435,0,0,1,8.771-4.433,8.283,8.283,0,0,1,6.908,6.587,7.742,7.742,0,0,1-1.566,6.819c-.852,1.02-1.618,2.114-2.388,3.2a1,1,0,0,0,.23,1.548c1.1.962,1.2,4.093.161,5.12a3.187,3.187,0,0,1-1.885.843c-1.834.113-3.68.078-5.519.028a2.365,2.365,0,0,1-2.5-2.536C1743.542,776.188,1743.295,774.621,1745.26,773.554Zm6.245,4.171v-1.656h-5.471c.033.608.06,1.13.089,1.656Z" transform="translate(-1716.521 -740.58)" fill="#ee2c3c"/>
  <path id="Path_8275" data-name="Path 8275" d="M1737.871,749.786a3.692,3.692,0,0,1-1.243.823c-.746.162-2.148-1.333-2.126-2.124a1.144,1.144,0,0,1,1.218-1.229C1736.5,747.228,1737.868,748.619,1737.871,749.786Z" transform="translate(-1712.292 -734.389)" fill="#ee2c3c"/>
  <path id="Path_8276" data-name="Path 8276" d="M1796.267,748.493c-.014.79-1.393,2.191-2.159,2.133a1.161,1.161,0,0,1-1.2-1.26,2.956,2.956,0,0,1,2.156-2.127A1.194,1.194,0,0,1,1796.267,748.493Z" transform="translate(-1753.821 -734.377)" fill="#ee2c3c"/>
  <path id="Path_8277" data-name="Path 8277" d="M1723.836,776.841a5.832,5.832,0,0,1,1.688,1.128c.187.268-.13,1.319-.335,1.354a8.432,8.432,0,0,1-2.781.012,1.574,1.574,0,0,1-.359-1.344A6.705,6.705,0,0,1,1723.836,776.841Z" transform="translate(-1703.401 -755.423)" fill="#ee2c3c"/>
  <path id="Path_8278" data-name="Path 8278" d="M1806.138,777.627a5.562,5.562,0,0,1,1.4.4,1.194,1.194,0,0,1,.134,1.8,2.987,2.987,0,0,1-3.124-.044,1.17,1.17,0,0,1,.22-1.786A5.589,5.589,0,0,1,1806.138,777.627Z" transform="translate(-1761.871 -755.982)" fill="#ee2c3c"/>
  <path id="Path_8279" data-name="Path 8279" d="M1767.718,736.237a4.734,4.734,0,0,1-.491,1.505,1.108,1.108,0,0,1-1.716.066,2.9,2.9,0,0,1,.028-3.106,1.1,1.1,0,0,1,1.711.113A4.646,4.646,0,0,1,1767.718,736.237Z" transform="translate(-1734.028 -725.213)" fill="#ee2c3c"/>
</svg>
