<svg id="Group_397" data-name="Group 397" xmlns="http://www.w3.org/2000/svg" width="38.742" height="31.618" viewBox="0 0 38.742 31.618">
  <path id="Path_1724" data-name="Path 1724" d="M432.941-399.892a2.3,2.3,0,0,1,1.089-.935q8.336-4.153,16.661-8.33a3.418,3.418,0,0,1,3.256,0q8.375,4.2,16.761,8.382c.476.238.942.5.973,1.1s-.422.874-.86,1.143q-8.363,5.128-16.728,10.254a3.184,3.184,0,0,1-3.539.007Q442.17-393.4,433.8-398.553a5.756,5.756,0,0,1-.86-.809Z" transform="translate(-432.941 409.569)" fill="#ee2c3c"/>
  <path id="Path_1725" data-name="Path 1725" d="M500.385-272.9c0,1.072-.025,2.145.007,3.217a4.49,4.49,0,0,1-1.3,3.244,11.836,11.836,0,0,1-4.228,2.861,23.545,23.545,0,0,1-11.621,1.714,21.247,21.247,0,0,1-7.883-2.2,9.984,9.984,0,0,1-3.7-2.989,4.078,4.078,0,0,1-.8-2.433c.007-2.17,0-4.34.006-6.509a2.66,2.66,0,0,1,.082-.709.488.488,0,0,1,.707-.352,2.518,2.518,0,0,1,.469.241q5.352,3.279,10.7,6.561a5,5,0,0,0,5.6,0q5.513-3.378,11.024-6.761c.1-.059.191-.123.293-.172.348-.169.555-.066.623.319a2.877,2.877,0,0,1,.024.49Q500.386-274.646,500.385-272.9Z" transform="translate(-466.244 293.368)" fill="#ee2c3c"/>
  <path id="Path_1726" data-name="Path 1726" d="M719.945-284.257c0,1.829.009,3.658-.008,5.487a.815.815,0,0,0,.377.751,1.965,1.965,0,0,1,.681,2.29,2.033,2.033,0,0,1-1.948,1.3,1.985,1.985,0,0,1-1.87-1.548,1.888,1.888,0,0,1,.752-2.038.823.823,0,0,0,.368-.755c-.011-3.343,0-6.686-.016-10.028a1.159,1.159,0,0,1,.648-1.2c.158-.077.3-.18.456-.268.453-.259.558-.2.56.339Q719.949-287.1,719.945-284.257Z" transform="translate(-682.549 304.916)" fill="#ee2c3c"/>
</svg>
